<?xml version="1.0" standalone="no"?>
<!DOCTYPE svg PUBLIC "-//W3C//DTD SVG 20010904//EN"
 "http://www.w3.org/TR/2001/REC-SVG-20010904/DTD/svg10.dtd">
<svg version="1.0" xmlns="http://www.w3.org/2000/svg"
 width="524.000000pt" height="524.000000pt" viewBox="0 0 524.000000 524.000000"
 preserveAspectRatio="xMidYMid meet">
<metadata>
Created by potrace 1.14, written by Peter Selinger 2001-2017
</metadata>
<g transform="translate(0.000000,524.000000) scale(0.100000,-0.100000)"
fill="#000000" stroke="none">
<path d="M2381 5169 c-448 -40 -930 -220 -1291 -483 -172 -126 -377 -318 -500
-471 -254 -313 -464 -751 -536 -1120 -39 -200 -49 -305 -48 -545 0 -186 3
-236 20 -365 10 -72 52 -269 74 -340 12 -38 25 -83 29 -100 13 -48 100 -264
138 -340 33 -64 70 -132 126 -227 23 -40 145 -214 162 -232 5 -6 28 -34 50
-61 64 -81 273 -287 368 -364 175 -141 424 -291 617 -371 234 -98 301 -104
355 -32 19 25 20 44 22 292 1 145 0 267 -2 270 -2 4 -35 0 -72 -7 -76 -16
-259 -21 -342 -10 -79 11 -195 52 -259 93 -100 63 -152 128 -230 286 -85 174
-139 241 -261 333 -126 95 -138 132 -49 155 38 11 113 6 153 -9 127 -48 222
-127 310 -257 72 -106 144 -180 208 -214 47 -25 59 -40 33 -40 -17 0 -28 -24
-20 -44 8 -22 63 -41 83 -29 23 15 26 42 4 58 -16 13 -14 13 17 4 89 -27 239
-16 372 26 60 19 65 25 74 84 14 86 75 211 129 265 14 14 25 26 23 26 -74 10
-218 35 -306 54 -127 28 -310 107 -426 185 -188 125 -349 360 -402 586 -1 6
-7 33 -14 60 -27 116 -38 236 -35 405 2 177 4 192 31 290 35 127 109 271 186
363 32 38 39 54 35 75 -3 15 -13 59 -21 99 -22 101 -25 213 -10 318 18 121 59
252 82 259 46 14 183 -9 302 -52 51 -18 232 -107 270 -132 127 -85 131 -87
185 -73 28 7 64 16 80 19 17 3 48 9 70 14 22 5 66 12 98 15 32 4 68 9 80 12
39 10 459 12 527 3 36 -5 90 -12 120 -16 30 -3 57 -8 60 -9 3 -2 23 -6 45 -9
22 -4 71 -15 110 -24 l70 -18 90 56 c242 151 490 238 607 214 24 -5 31 -15 52
-82 33 -107 49 -211 49 -324 -1 -90 -23 -231 -45 -271 -6 -12 -5 -22 4 -31 78
-81 157 -214 200 -336 47 -137 58 -215 54 -410 -2 -102 -6 -196 -9 -210 -3
-14 -8 -42 -11 -62 -34 -228 -138 -451 -278 -598 -59 -63 -160 -140 -238 -183
-71 -38 -203 -95 -240 -102 -13 -2 -37 -9 -55 -15 -18 -6 -43 -13 -56 -16 -89
-19 -180 -35 -223 -40 -80 -8 -82 -10 -48 -45 35 -36 84 -124 105 -189 35
-105 38 -154 37 -581 0 -266 4 -437 10 -455 15 -42 67 -74 119 -74 146 0 598
236 866 450 83 67 297 275 354 344 99 121 155 200 269 381 38 61 144 285 179
380 69 186 124 388 139 515 3 30 8 57 9 60 18 30 27 494 13 615 -13 107 -27
198 -43 275 -9 41 -18 83 -20 92 -41 192 -163 495 -281 695 -145 247 -364 508
-564 674 -36 30 -67 56 -70 60 -14 15 -187 134 -270 186 -290 181 -664 313
-1015 359 -22 3 -56 7 -75 10 -69 9 -417 11 -509 3z"/>
<path d="M914 1478 c-7 -11 29 -48 47 -48 16 0 22 30 9 45 -15 18 -46 20 -56
3z"/>
<path d="M1047 1393 c-13 -12 -7 -32 14 -52 29 -26 64 -12 53 22 -10 32 -48
50 -67 30z"/>
<path d="M1142 1268 c-16 -16 -15 -39 4 -66 18 -25 52 -29 61 -6 14 36 -41 96
-65 72z"/>
<path d="M1267 1093 c-23 -22 3 -71 45 -86 23 -8 48 18 41 43 -9 35 -66 64
-86 43z"/>
<path d="M1668 959 c-27 -15 -22 -48 9 -60 36 -14 70 -4 79 23 12 38 -46 62
-88 37z"/>
<path d="M1888 959 c-10 -5 -18 -21 -18 -33 0 -39 52 -49 90 -18 47 38 -18 83
-72 51z"/>
</g>
</svg>
